<mxfile host="app.diagrams.net" modified="2023-06-15T22:26:38.692Z" agent="Mozilla/5.0 (Windows NT 10.0; Win64; x64; rv:109.0) Gecko/20100101 Firefox/112.0" version="21.3.8" etag="0zbAGqcfa20w3WYqrrX5" type="github">
  <diagram name="第 1 页" id="q6HOF7CeJMsjGHmnNFDb">
    <mxGraphModel>
      <root>
        <mxCell id="0" />
        <mxCell id="1" parent="0" />
      </root>
    </mxGraphModel>
  </diagram>
</mxfile>
